<svg xmlns="http://www.w3.org/2000/svg" viewBox="0 0 64 64" fill="none">
  <defs>
    <linearGradient id="grad" x1="0" y1="0" x2="1" y2="1">
      <stop offset="0%" stop-color="#0EA5E9" />
      <stop offset="100%" stop-color="#6366F1" />
    </linearGradient>
  </defs>
  <rect x="4" y="4" width="56" height="56" rx="14" fill="url(#grad)" />
  <path d="M21 22c5 6 8.5 11.5 11 17.5C35 46 35.5 48 37 50" stroke="white" stroke-width="3" stroke-linecap="round" />
  <path d="M25 18c3 3.5 6 8 7 12 1 3.8-1.5 9-4 12.5" stroke="white" stroke-width="3" stroke-linecap="round" />
  <path d="M36 29c2-4.5 6-9 8.5-9.5 2.5-.5 4.5 2 4.5 5 0 3-2.5 5-5.5 8-2.5 2.5-5.5 5.5-7 9" stroke="white" stroke-width="3" stroke-linecap="round" />
  <circle cx="32" cy="47" r="2" fill="white" />
</svg>
